<svg xmlns="http://www.w3.org/2000/svg" viewBox="0 0 120 140" role="img" aria-labelledby="title"><title>Stemma provvisorio Il Capraia ASD</title><path d="M12 10h96v62c0 32-20 51-48 60C32 123 12 104 12 72V10Z" fill="#f4d84a" stroke="#103d2d" stroke-width="8"/><path d="M22 22h76v51c0 24-14 39-38 49-24-10-38-25-38-49V22Z" fill="#103d2d"/><path d="M26 82C40 56 50 75 61 48c7 15 16 13 31-9l5 23c-12 16-25 30-42 39-13-5-23-11-29-19Z" fill="#f4d84a"/><text x="60" y="43" text-anchor="middle" fill="#f4d84a" font-family="serif" font-size="17" font-weight="bold">C</text><text x="60" y="111" text-anchor="middle" fill="#103d2d" font-family="sans-serif" font-size="8" font-weight="bold">CAPRAIA ASD</text></svg>
